<?xml version="1.0" encoding="UTF-8"?>
<svg id="Lager_2" data-name="Lager 2" xmlns="http://www.w3.org/2000/svg" viewBox="0 0 205.96 32.71">
  <defs>
    <style>
      .cls-1 {
        fill: #030102;
      }
    </style>
  </defs>
  <g id="Lager_2-2" data-name="Lager 2">
    <g>
      <path class="cls-1" d="M55.67,26.46h-3.46c-.67,0-.93-.12-1.11-.63l-6.18-16.66c-.18-.51-.08-.67.36-.75.53-.1,1.4-.14,2.07-.14.61,0,1.34.02,1.9.1.45.06.55.18.73.71l5.69,17.37ZM60.03,9.06c.18-.53.26-.63.77-.69.49-.06,1.18-.08,1.86-.08.73,0,1.38.04,1.82.1.53.08.59.3.43.75l-6.18,16.7c-.18.51-.45.63-1.11.63h-.93l-1.2-3.61,4.54-13.8Z"/>
      <path class="cls-1" d="M69.59,8.94v6.75c0,.24.06.34.39.34h9.18c.28,0,.39-.1.39-.34,0-2.84-1.72-4.42-4.9-4.42-1.86,0-3.22.51-4.05,1.52v-4.2c1.16-.32,2.49-.51,3.99-.51,5.92,0,9.79,2.53,9.79,8.61,0,.61-.04,1.46-.08,1.78-.06.53-.22.59-.73.59h-13.56c-.26,0-.38.08-.38.3,0,3.16,3.16,4.01,6.57,4.01,3,0,5.03-.73,6-.99.36-.1.61-.04.67.32.1.59.16,1.78.1,2.41-.04.45-.08.57-.47.71-.69.26-3.49.99-6.69.99-6.42,0-11.12-2.23-11.12-9.34,0-4.26,1.64-7.19,4.92-8.55Z"/>
      <path class="cls-1" d="M91.87,10.44c1.34-1.56,3.2-2.29,5.67-2.29.49,0,.79.02,1.03.06.36.06.45.18.51.51.16.83.1,2.31-.02,3-.08.47-.26.49-.71.47-.37-.02-.93-.04-1.52-.04-2.98,0-5.59,1.3-5.59,5.71v7.96c0,.41-.1.59-.53.65-.53.08-1.16.12-1.84.12s-1.3-.04-1.82-.12c-.43-.06-.53-.24-.53-.65V9c0-.39.06-.55.47-.61.43-.06,1.11-.1,1.74-.1s1.22.04,1.58.1.49.16.53.45l.22,1.52c.02.18.1.22.28.22h.12c.22,0,.28,0,.41-.14Z"/>
      <path class="cls-1" d="M108.83,23.43c1.11,0,2.13-.2,2.59-.28.32-.06.59-.04.65.3.12.73.18,1.74.1,2.47-.04.34-.16.43-.47.51-.63.16-1.92.47-3.95.47-4.26,0-7.15-1.66-7.15-6.5V3.75c0-.41.08-.55.51-.63.53-.1,1.17-.14,1.84-.14s1.32.04,1.84.14c.43.08.53.22.53.63v4.26c0,.26.12.38.38.38h5.15c.34,0,.49.06.55.43.06.34.08.85.08,1.32s-.02.97-.08,1.32c-.06.37-.2.43-.55.43h-5.15c-.26,0-.38.12-.38.38v7.7c0,2.88,1.22,3.47,3.51,3.47Z"/>
      <path class="cls-1" d="M116.37,0c1.46,0,2.53,1.05,2.53,2.51s-1.07,2.51-2.53,2.51-2.53-1.05-2.53-2.51,1.07-2.51,2.53-2.51ZM113.94,9.06c0-.41.08-.55.51-.63.53-.1,1.17-.14,1.84-.14s1.32.04,1.84.14c.43.08.53.22.53.63v16.76c0,.41-.1.59-.53.65-.53.08-1.15.12-1.84.12s-1.3-.04-1.82-.12c-.43-.06-.53-.24-.53-.65V9.06Z"/>
      <path class="cls-1" d="M140.32,23.45c0,4.09-.87,9.26-10.48,9.26-2.51,0-4.94-.3-5.77-.51-.34-.08-.45-.18-.49-.59-.08-.73,0-1.72.12-2.37.06-.34.24-.43.59-.37.89.16,3.44.53,5.57.53,3.97,0,5.78-1.34,5.78-5.35v-7.09c0-3.42-1.4-5.53-4.9-5.53s-4.9,2.11-4.9,5.53,1.44,5.53,5.03,5.53c1.72,0,2.98-.47,3.79-1.34v3.26c-.59.47-2.01,1.36-4.78,1.36-5.11,0-8.79-2.76-8.79-8.81s3.69-8.81,8.79-8.81c1.99,0,3.71.47,5.19,1.72.14.12.18.14.41.14h.1c.18,0,.24-.04.28-.22l.16-.95c.04-.28.16-.39.53-.45.36-.06.97-.1,1.58-.1s1.32.04,1.74.1c.41.06.47.22.47.61v14.45Z"/>
      <path class="cls-1" d="M147.53,9.02v8.53c0,3.85,1.46,6.18,5.25,6.18,2.07,0,3.42-.69,4.26-1.95v4.66c-1.24.39-2.65.57-4.26.57-6.61,0-10.09-3.22-10.09-9.46,0-4.3,1.66-7.17,4.84-8.53ZM148.52,8.65c1.24-.39,2.65-.57,4.26-.57,6.61,0,10.09,3.22,10.09,9.46,0,4.3-1.66,7.17-4.84,8.53v-8.53c0-3.85-1.46-6.18-5.25-6.18-2.07,0-3.42.69-4.26,1.95v-4.66Z"/>
      <path class="cls-1" d="M183.41,23.45c0,4.09-.87,9.26-10.48,9.26-2.51,0-4.94-.3-5.77-.51-.34-.08-.45-.18-.49-.59-.08-.73,0-1.72.12-2.37.06-.34.24-.43.59-.37.89.16,3.44.53,5.57.53,3.97,0,5.78-1.34,5.78-5.35v-7.09c0-3.42-1.4-5.53-4.9-5.53s-4.9,2.11-4.9,5.53,1.44,5.53,5.03,5.53c1.72,0,2.98-.47,3.79-1.34v3.26c-.59.47-2.01,1.36-4.78,1.36-5.11,0-8.79-2.76-8.79-8.81s3.69-8.81,8.79-8.81c1.99,0,3.71.47,5.19,1.72.14.12.18.14.41.14h.1c.18,0,.24-.04.28-.22l.16-.95c.04-.28.16-.39.53-.45.36-.06.97-.1,1.58-.1s1.32.04,1.74.1c.41.06.47.22.47.61v14.45Z"/>
      <path class="cls-1" d="M190.62,9.02v8.53c0,3.85,1.46,6.18,5.25,6.18,2.07,0,3.42-.69,4.26-1.95v4.66c-1.24.39-2.65.57-4.26.57-6.61,0-10.09-3.22-10.09-9.46,0-4.3,1.66-7.17,4.84-8.53ZM191.61,8.65c1.24-.39,2.65-.57,4.26-.57,6.61,0,10.09,3.22,10.09,9.46,0,4.3-1.66,7.17-4.84,8.53v-8.53c0-3.85-1.46-6.18-5.25-6.18-2.07,0-3.42.69-4.26,1.95v-4.66Z"/>
    </g>
    <path d="M15.08,0c2.11.02,4.21,0,6.32.01,3.36,5.77,6.74,11.53,10.12,17.28,1.1,1.84,2.16,3.7,3.27,5.53-8.14,0-16.27,0-24.41,0-.33.56-.64,1.12-.98,1.67,8.13-.02,16.27,0,24.41-.01-1.07,1.8-2.11,3.61-3.17,5.41-8.84,0-17.68,0-26.52,0,4.02-6.97,8.07-13.92,12.11-20.87-.34-.54-.65-1.1-.98-1.65-4.03,6.92-8.05,13.85-12.07,20.77-1.04-1.81-2.12-3.61-3.18-5.41.91-1.46,1.74-2.96,2.62-4.43C6.14,12.25,9.68,6.19,13.21.13c1.64,2.85,3.33,5.67,4.99,8.52,2.42,4.1,4.82,8.21,7.23,12.31.65.01,1.31,0,1.96,0-3.47-5.84-6.88-11.71-10.33-17.57-.67-1.13-1.33-2.25-1.98-3.39ZM18.32,1.86c3.77,6.36,7.48,12.75,11.25,19.11.65,0,1.29,0,1.94,0-3.76-6.36-7.48-12.74-11.23-19.1-.65,0-1.31,0-1.96,0ZM13.19,3.87c-3.67,6.29-7.32,12.59-11,18.87.34.55.66,1.11.99,1.66,3.66-6.3,7.33-12.6,10.99-18.9-.33-.54-.64-1.09-.97-1.63ZM11.44,20.96c3.94,0,7.89,0,11.83,0-1.99-3.36-3.95-6.74-5.94-10.1-1.98,3.36-3.92,6.74-5.89,10.1ZM8.31,26.37c-.31.56-.63,1.11-.95,1.65,7.4,0,14.8,0,22.19,0,.33-.55.64-1.11.97-1.66-7.4.02-14.81,0-22.21,0Z"/>
  </g>
</svg>